<?xml version="1.0" encoding="UTF-8"?><svg id="_レイヤー_2" xmlns="http://www.w3.org/2000/svg" viewBox="0 0 284.76 277.22"><defs><style>.cls-1{fill:#eaeaea;}.cls-2{fill:#ea9c68;}.cls-3{stroke-miterlimit:10;}.cls-3,.cls-4{fill:none;stroke:#666;stroke-linecap:round;stroke-width:8px;}.cls-4{stroke-linejoin:round;}</style></defs><g id="_02d"><circle class="cls-2" cx="191.89" cy="112.12" r="92.88"/><path class="cls-3" d="m264.09,130.77c34.23-79.98-51.92-120.42-51.92-120.42-81.03-29.02-116.89,50.68-116.89,50.68-33.59,85.06,48.52,121.93,48.52,121.93,47.3,18.74,87.09-7.17,87.09-7.17"/><path class="cls-1" d="m14.09,242.87c1-18,7-24,15-30,5.95-4.46,23.39-12.05,36-8-4.61-20.05-3.32-37.07,9-48,7.22-6.41,19.54-13.55,36-13,30,1,42.3,17.19,44,20,5.71,9.45,1,3,8.08,20.86,11.92-6.86,28.98-7.96,33.92-6.86,18,4,22.75,10.46,25,14,7,11,5.44,28.93,3.62,43.3,9.28-1.1,19,2.41,25.42,9.2s9.41,16.68,7.8,25.89c-67.22,2.31-134.44,4.61-201.66,6.92-24.61.84-43.56-9.34-42.17-34.3Z"/><path class="cls-4" d="m176.72,254.56c-47.15,3.31-94.38,5.41-141.63,6.32-6.28.12-12.86.15-18.4-2.81-8.07-4.31-11.87-13.98-12.55-23.1-.85-11.35,2.39-23.25,10.09-31.64s20.1-12.66,31.01-9.39c-3.81-8.83-2.31-19.04.53-28.22,2.06-6.65,4.91-13.3,9.94-18.1,6.55-6.25,15.82-8.55,24.65-10.53,6.57-1.47,13.26-2.91,19.98-2.49,10.37.65,20.24,5.84,27.28,13.48,7.04,7.64,11.35,17.6,12.96,27.87,1.58-6.82,8.93-10.66,15.81-11.99,15.39-2.98,32.16,2.57,42.72,14.15,10.57,11.58,14.57,28.78,10.2,43.83,8.46-4.81,19.77-1.31,26.49,5.72s9.78,16.76,11.88,26.27c-5.2.71-10.48.88-15.71.51"/></g></svg>