<?xml version="1.0" encoding="UTF-8"?><svg id="_レイヤー_2" xmlns="http://www.w3.org/2000/svg" viewBox="0 0 276.35 274.85"><defs><style>.cls-1{fill:#eaeaea;}.cls-2{fill:none;stroke:#666;stroke-linecap:round;stroke-linejoin:round;stroke-width:8px;}</style></defs><g id="_04d"><path class="cls-1" d="m74.61,93.48c.83-14.87,5.78-19.82,12.39-24.78,4.91-3.68,19.32-9.95,29.73-6.61-3.81-16.56-2.74-30.61,7.43-39.64,5.97-5.29,16.14-11.19,29.73-10.74,24.78.83,34.94,14.2,36.34,16.52,4.71,7.8.83,2.48,6.67,17.23,9.84-5.67,23.93-6.57,28.01-5.67,14.87,3.3,18.78,8.64,20.65,11.56,5.78,9.08,4.5,23.89,2.99,35.76,7.66-.91,15.69,1.99,21,7.6s7.77,13.78,6.44,21.38c-55.52,1.9-111.03,3.81-166.55,5.71-20.32.7-35.98-7.71-34.83-28.33Z"/><path class="cls-2" d="m208.93,103.14c-38.94,2.73-77.95,4.47-116.97,5.22-5.18.1-10.62.12-15.2-2.32-6.67-3.56-9.8-11.54-10.37-19.08-.7-9.38,1.97-19.2,8.33-26.13s16.6-10.46,25.61-7.76c-3.15-7.29-1.9-15.72.44-23.31,1.7-5.49,4.05-10.98,8.21-14.95,5.41-5.16,13.07-7.06,20.36-8.7,5.43-1.22,10.95-2.4,16.5-2.06,8.57.53,16.71,4.82,22.53,11.13s9.37,14.53,10.7,23.01c1.3-5.64,7.38-8.8,13.06-9.9,12.71-2.46,26.56,2.12,35.29,11.68,8.73,9.56,12.04,23.77,8.43,36.2,6.99-3.97,16.32-1.09,21.88,4.73s8.08,13.84,9.81,21.69c-4.3.59-8.65.73-12.98.42"/><path class="cls-1" d="m14.09,240.5c1-18,7-24,15-30,5.95-4.46,23.39-12.05,36-8-4.61-20.05-3.32-37.07,9-48,7.22-6.41,19.54-13.55,36-13,30,1,42.3,17.19,44,20,5.71,9.45,1,3,8.08,20.86,11.92-6.86,28.98-7.96,33.92-6.86,18,4,22.75,10.46,25,14,7,11,5.44,28.93,3.62,43.3,9.28-1.1,19,2.41,25.42,9.2,6.43,6.79,9.41,16.68,7.8,25.89-67.22,2.31-134.44,4.61-201.66,6.92-24.61.84-43.56-9.34-42.17-34.3Z"/><path class="cls-2" d="m176.72,252.2c-47.15,3.31-94.38,5.41-141.63,6.32-6.28.12-12.86.15-18.4-2.81-8.07-4.31-11.87-13.98-12.55-23.1-.85-11.35,2.39-23.25,10.09-31.64s20.1-12.66,31.01-9.39c-3.81-8.83-2.31-19.04.53-28.22,2.06-6.65,4.91-13.3,9.94-18.1,6.55-6.25,15.82-8.55,24.65-10.53,6.57-1.47,13.26-2.91,19.98-2.49,10.37.65,20.24,5.84,27.28,13.48s11.35,17.6,12.96,27.87c1.58-6.82,8.93-10.66,15.81-11.99,15.39-2.98,32.16,2.57,42.72,14.15,10.57,11.58,14.57,28.78,10.2,43.83,8.46-4.81,19.77-1.31,26.49,5.72,6.72,7.04,9.78,16.76,11.88,26.27-5.2.71-10.48.88-15.71.51"/></g></svg>