<?xml version="1.0" encoding="UTF-8"?><svg id="_レイヤー_2" xmlns="http://www.w3.org/2000/svg" viewBox="0 0 258.35 257.44"><defs><style>.cls-1{fill:#eaeaea;}.cls-2{fill:none;stroke:#666;stroke-linecap:round;stroke-linejoin:round;stroke-width:8px;}</style></defs><g id="_09d"><path class="cls-1" d="m14.09,112.35c1-18,7-24,15-30,5.95-4.46,23.39-12.05,36-8-4.61-20.05-3.32-37.07,9-48,7.22-6.41,19.54-13.55,36-13,30,1,42.3,17.19,44,20,5.71,9.45,1,3,8.08,20.86,11.92-6.86,28.98-7.96,33.92-6.86,18,4,22.75,10.46,25,14,7,11,5.44,28.93,3.62,43.3,9.28-1.1,19,2.41,25.42,9.2,6.43,6.79,9.41,16.68,7.8,25.89-67.22,2.31-134.44,4.61-201.66,6.92-24.61.84-43.56-9.34-42.17-34.3Z"/><path class="cls-2" d="m176.72,124.05c-47.15,3.31-94.38,5.41-141.63,6.32-6.28.12-12.86.15-18.4-2.81-8.07-4.31-11.87-13.98-12.55-23.1-.85-11.35,2.39-23.25,10.09-31.64s20.1-12.66,31.01-9.39c-3.81-8.83-2.31-19.04.53-28.22,2.06-6.65,4.91-13.3,9.94-18.1,6.55-6.25,15.82-8.55,24.65-10.53,6.57-1.47,13.26-2.91,19.98-2.49,10.37.65,20.24,5.84,27.28,13.48s11.35,17.6,12.96,27.87c1.58-6.82,8.93-10.66,15.81-11.99,15.39-2.98,32.16,2.57,42.72,14.15,10.57,11.58,14.57,28.78,10.2,43.83,8.46-4.81,19.77-1.31,26.49,5.72,6.72,7.04,9.78,16.76,11.88,26.27-5.2.71-10.48.88-15.71.51"/><path class="cls-2" d="m66.12,179.09c-5.68,7.4-10.97,15.09-15.86,23.03"/><path class="cls-2" d="m132.89,169.18c-4.86,7.09-9.57,14.27-14.14,21.55"/><path class="cls-2" d="m200.52,175.88c-5.77,10.08-11.54,20.17-17.31,30.25"/><path class="cls-2" d="m86.02,219.75l-11.66,21.75"/><path class="cls-2" d="m146.63,228.67c-2.36,8.71-5.99,17.08-10.72,24.77"/></g></svg>