<?xml version="1.0" encoding="UTF-8"?><svg id="_レイヤー_2" xmlns="http://www.w3.org/2000/svg" viewBox="0 0 231.69 280.03"><defs><style>.cls-1{fill:#e1f9f9;}.cls-2{fill:none;stroke:#666;stroke-linecap:round;stroke-linejoin:round;stroke-width:8px;}</style></defs><g id="_13d"><path class="cls-1" d="m37.15,106.91c-1.77-8.68-.08-17.64,1.7-26.32,3.06-14.9,6.58-30.2,15.43-42.57,11.27-15.75,30.36-24.9,49.66-26.55,19.3-1.64,38.73,3.64,56.02,12.37,8.57,4.33,16.82,9.58,23.31,16.66,10.84,11.84,16.02,28.38,15.04,44.4s-7.84,31.44-18.18,43.71c24.65,11.45,44.31,34.16,49.95,60.75,5.64,26.59-3.82,56.36-25.15,73.2-23.1,18.24-55.29,19.53-84.47,15.7-22.85-3-45.35-8.63-66.91-16.76-8.88-3.35-17.83-7.26-24.57-13.94-10.84-10.73-14.32-27.34-12.01-42.42,2.31-15.08,9.7-28.91,18.09-41.65,3.49-5.31,7.33-10.55,12.03-14.87,3.11-2.86,13.56-7.11,12.83-10.56-.68-3.26-11.48-10.34-13.95-13.44-4.16-5.22-7.46-11.14-8.8-17.73Z"/><path class="cls-2" d="m206.89,242.08c-9,16-38.57,28.62-53.46,31.57-14.89,2.95-30.23,2.57-45.38,1.68-26.24-1.53-53.15-4.77-76.26-17.29-6.59-3.57-12.87-7.94-17.59-13.76-7.38-9.11-10.38-21.2-10.19-32.92s3.34-23.2,7.14-34.29c3.23-9.43,7.04-18.85,13.31-26.6,6.27-7.75,16.66-17.45,26.62-17.92-10.6-11.22-23.18-15.47-25.11-38.23-1.17-13.78.27-27.61,5.11-40.57,4.1-10.98,15.18-40.87,48.81-46.67,29-5,58.57-6.65,85,17,19,17,23.33,46.55,24,58,1.01,17.23-5.98,30.27-18.14,42.52,14,3.54,27.42,15,35.79,26.77,8.37,11.77,12.39,26.55,11.14,40.93"/></g></svg>