<?xml version="1.0" encoding="UTF-8"?><svg id="_レイヤー_2" xmlns="http://www.w3.org/2000/svg" viewBox="0 0 140.27 194.77"><defs><style>.cls-1{fill:#bc542b;}.cls-2{fill:#a58560;}.cls-3{fill:#a5411e;}.cls-4{fill:#897252;}</style></defs><g id="_レイヤー_2-2"><path class="cls-4" d="m7.67,143.06c-3,3.57-5.92,7.39-7.15,11.89s-.36,9.86,3.23,12.83c4.86,4.03,12.53,2.06,17.22-2.16s7.43-10.14,11.1-15.27c8.68-12.15,22.91-20.36,28.51-34.2-2.09,23.34-3.25,46.76-3.5,70.19-.01,1.42-.02,2.88.5,4.2,1.03,2.59,3.91,4.05,6.69,4.21s5.5-.71,8.14-1.58c2.1-.69,4.3-1.45,5.73-3.13,1.23-1.45,1.7-3.38,2.11-5.23,4.57-20.67,6.38-41.94,5.38-63.09,12.71,21.09,40.2,60.4,44.48,58.79,6.03-.21,10.28-6.73,10.17-12.76s-3.39-11.5-6.76-16.5c-10.52-15.59-23.03-29.71-35.49-43.79-1.69-1.91-3.48-3.89-5.86-4.81-2.46-.94-5.2-.62-7.81-.29-15.18,1.95-31.4,1.32-44.07,10.44-6.11,4.4-11.95,9.19-17.47,14.32-4.83,4.5-9.68,12.52-15.14,15.93Z"/><path class="cls-1" d="m12.28,97.06c-3.66-14.49-1.25-30.41,6.53-43.16,4.55,1.58,9.1,3.17,13.65,4.75,2.81-21.8,12.66-42.64,27.72-58.65,6.28,6.22,12.56,12.44,18.85,18.65,3.53-4.28,7.64-8.09,12.17-11.3,10.44,7.06,16.89,18.89,19.95,31.12s3.12,24.97,3.15,37.57c2.86-1.79,5.71-3.59,8.57-5.38,1.81,17.21,2.55,36.07-7.47,50.18-8.12,11.44-22.24,17.6-36.23,18.65-29.78,2.23-59.18-11.93-66.89-42.43Z"/><path class="cls-3" d="m113.81,108.53c2.59-10.51.89-22.06-4.62-31.31-3.22,1.15-6.44,2.3-9.65,3.44-1.99-15.81-8.96-30.93-19.61-42.54-4.44,4.51-8.89,9.02-13.33,13.53-2.5-3.11-5.4-5.87-8.61-8.2-7.38,5.12-11.94,13.71-14.11,22.57-2.17,8.87-2.2,18.11-2.23,27.26-2.02-1.3-4.04-2.6-6.06-3.91-1.28,12.48-1.8,26.17,5.28,36.4,5.74,8.3,15.73,12.76,25.63,13.53,21.06,1.62,41.86-8.65,47.31-30.78Z"/><path class="cls-2" d="m10.72,166.31c-4.1.23-7.96-3.56-7.8-7.66s4.31-7.58,8.37-7.03c1.31.18,2.56.71,3.66,1.43,3.09,2.02,5.1,5.98,3.98,9.5s-5.93,5.56-8.83,3.29"/><path class="cls-2" d="m61.01,180.36c3.81-4.24,12.75-5.38,13.81-5.24,1.95.26,3.97,2.93,4,5,.01.78-.13,1.43-.12,2.21,0,.45-.13.89-.28,1.32-1.22,3.42-3.6,6.53-6.89,8.07s-7.51,1.26-10.22-1.16c-2.71-2.41-3.38-7-1.05-9.79"/><path class="cls-2" d="m132.82,162.12c-2,0-3.88,3.03-5,5s-1.47,4.78-1,7c.52,2.42,2.73,5.98,5,5,1.06-.46,5.57-3.92,6-5,2-5,1-5,1-8,0-1.23-2-4-3.67-4.3"/></g></svg>